<mxfile host="app.diagrams.net" agent="Mozilla/5.0 (Windows NT 10.0; Win64; x64) AppleWebKit/537.36 (KHTML, like Gecko) Chrome/127.0.0.0 Safari/537.36" version="24.7.7">
  <diagram name="Page-1" id="ZUvjnt0dEo6Wf4qRX7n5">
    <mxGraphModel dx="2327" dy="746" grid="1" gridSize="10" guides="1" tooltips="1" connect="1" arrows="1" fold="1" page="1" pageScale="1" pageWidth="827" pageHeight="1169" math="0" shadow="0">
      <root>
        <mxCell id="0" />
        <mxCell id="1" parent="0" />
        <mxCell id="SwwvMo_9Z4TMD4uhNruQ-1" value="KORISNICI" style="shape=module;align=left;spacingLeft=20;align=center;verticalAlign=top;whiteSpace=wrap;html=1;" vertex="1" parent="1">
          <mxGeometry x="30" y="40" width="180" height="140" as="geometry" />
        </mxCell>
        <mxCell id="SwwvMo_9Z4TMD4uhNruQ-2" value="&amp;lt;&amp;lt;component&amp;gt;&amp;gt;&lt;div&gt;Korisnik&lt;/div&gt;" style="rounded=0;whiteSpace=wrap;html=1;" vertex="1" parent="1">
          <mxGeometry x="80" y="95" width="90" height="35" as="geometry" />
        </mxCell>
        <mxCell id="SwwvMo_9Z4TMD4uhNruQ-3" value="NARUDŽBA" style="shape=module;align=left;spacingLeft=20;align=center;verticalAlign=top;whiteSpace=wrap;html=1;" vertex="1" parent="1">
          <mxGeometry x="400" y="32.5" width="300" height="180" as="geometry" />
        </mxCell>
        <mxCell id="SwwvMo_9Z4TMD4uhNruQ-5" value="" style="ellipse;fillColor=strokeColor;html=1;" vertex="1" parent="1">
          <mxGeometry x="295" y="97.5" width="30" height="25" as="geometry" />
        </mxCell>
        <mxCell id="SwwvMo_9Z4TMD4uhNruQ-9" value="" style="endArrow=none;html=1;rounded=0;exitX=1;exitY=0.5;exitDx=0;exitDy=0;entryX=0;entryY=0.5;entryDx=0;entryDy=0;" edge="1" parent="1" source="SwwvMo_9Z4TMD4uhNruQ-1" target="SwwvMo_9Z4TMD4uhNruQ-5">
          <mxGeometry width="50" height="50" relative="1" as="geometry">
            <mxPoint x="370" y="230" as="sourcePoint" />
            <mxPoint x="420" y="180" as="targetPoint" />
          </mxGeometry>
        </mxCell>
        <mxCell id="SwwvMo_9Z4TMD4uhNruQ-10" value="" style="endArrow=none;html=1;rounded=0;exitX=1;exitY=0.5;exitDx=0;exitDy=0;entryX=0.032;entryY=0.423;entryDx=0;entryDy=0;entryPerimeter=0;" edge="1" parent="1" source="SwwvMo_9Z4TMD4uhNruQ-5" target="SwwvMo_9Z4TMD4uhNruQ-3">
          <mxGeometry width="50" height="50" relative="1" as="geometry">
            <mxPoint x="370" y="230" as="sourcePoint" />
            <mxPoint x="420" y="180" as="targetPoint" />
          </mxGeometry>
        </mxCell>
        <mxCell id="SwwvMo_9Z4TMD4uhNruQ-11" value="Podaci o narudžbi" style="text;html=1;align=center;verticalAlign=middle;resizable=0;points=[];autosize=1;strokeColor=none;fillColor=none;" vertex="1" parent="1">
          <mxGeometry x="250" y="65" width="120" height="30" as="geometry" />
        </mxCell>
        <mxCell id="SwwvMo_9Z4TMD4uhNruQ-13" value="&amp;lt;&amp;lt;component&amp;gt;&amp;gt;&lt;div&gt;Narudžba&lt;/div&gt;" style="rounded=0;whiteSpace=wrap;html=1;" vertex="1" parent="1">
          <mxGeometry x="510" y="110" width="95" height="27.5" as="geometry" />
        </mxCell>
        <mxCell id="SwwvMo_9Z4TMD4uhNruQ-15" value="&lt;font style=&quot;font-size: 9px;&quot;&gt;&amp;lt;&amp;lt;component&amp;gt;&amp;gt;&lt;/font&gt;&lt;div&gt;&lt;font size=&quot;1&quot;&gt;Pregled narudžbe&lt;/font&gt;&lt;/div&gt;" style="rounded=0;whiteSpace=wrap;html=1;" vertex="1" parent="1">
          <mxGeometry x="430" y="152.5" width="95" height="27.5" as="geometry" />
        </mxCell>
        <mxCell id="SwwvMo_9Z4TMD4uhNruQ-17" value="&lt;font style=&quot;font-size: 9px;&quot;&gt;&amp;lt;&amp;lt;component&amp;gt;&amp;gt;&lt;/font&gt;&lt;div&gt;&lt;font size=&quot;1&quot;&gt;Stvaranje narudžbe&lt;/font&gt;&lt;/div&gt;" style="rounded=0;whiteSpace=wrap;html=1;" vertex="1" parent="1">
          <mxGeometry x="430" y="70" width="95" height="27.5" as="geometry" />
        </mxCell>
        <mxCell id="SwwvMo_9Z4TMD4uhNruQ-20" value="&lt;font style=&quot;font-size: 9px;&quot;&gt;&amp;lt;&amp;lt;component&amp;gt;&amp;gt;&lt;/font&gt;&lt;div&gt;&lt;font size=&quot;1&quot;&gt;Ažuriranje narudžbe&lt;/font&gt;&lt;/div&gt;" style="rounded=0;whiteSpace=wrap;html=1;" vertex="1" parent="1">
          <mxGeometry x="600" y="152.5" width="95" height="27.5" as="geometry" />
        </mxCell>
        <mxCell id="SwwvMo_9Z4TMD4uhNruQ-22" value="" style="endArrow=classic;html=1;rounded=0;entryX=0.25;entryY=1;entryDx=0;entryDy=0;exitX=0.673;exitY=-0.009;exitDx=0;exitDy=0;exitPerimeter=0;" edge="1" parent="1" source="SwwvMo_9Z4TMD4uhNruQ-15" target="SwwvMo_9Z4TMD4uhNruQ-13">
          <mxGeometry width="50" height="50" relative="1" as="geometry">
            <mxPoint x="370" y="220" as="sourcePoint" />
            <mxPoint x="420" y="170" as="targetPoint" />
          </mxGeometry>
        </mxCell>
        <mxCell id="SwwvMo_9Z4TMD4uhNruQ-23" value="" style="endArrow=classic;html=1;rounded=0;entryX=0.591;entryY=1.016;entryDx=0;entryDy=0;entryPerimeter=0;exitX=0.25;exitY=0;exitDx=0;exitDy=0;" edge="1" parent="1" source="SwwvMo_9Z4TMD4uhNruQ-20" target="SwwvMo_9Z4TMD4uhNruQ-13">
          <mxGeometry width="50" height="50" relative="1" as="geometry">
            <mxPoint x="450" y="200" as="sourcePoint" />
            <mxPoint x="500" y="150" as="targetPoint" />
          </mxGeometry>
        </mxCell>
        <mxCell id="SwwvMo_9Z4TMD4uhNruQ-24" value="" style="endArrow=classic;html=1;rounded=0;entryX=0.5;entryY=0;entryDx=0;entryDy=0;exitX=0.75;exitY=1;exitDx=0;exitDy=0;" edge="1" parent="1" source="SwwvMo_9Z4TMD4uhNruQ-17" target="SwwvMo_9Z4TMD4uhNruQ-13">
          <mxGeometry width="50" height="50" relative="1" as="geometry">
            <mxPoint x="450" y="160" as="sourcePoint" />
            <mxPoint x="500" y="110" as="targetPoint" />
          </mxGeometry>
        </mxCell>
        <mxCell id="SwwvMo_9Z4TMD4uhNruQ-25" value="" style="ellipse;fillColor=strokeColor;html=1;" vertex="1" parent="1">
          <mxGeometry x="105" y="250" width="30" height="25" as="geometry" />
        </mxCell>
        <mxCell id="SwwvMo_9Z4TMD4uhNruQ-27" value="" style="endArrow=none;html=1;rounded=0;entryX=0.5;entryY=1;entryDx=0;entryDy=0;exitX=0.5;exitY=0;exitDx=0;exitDy=0;" edge="1" parent="1" source="SwwvMo_9Z4TMD4uhNruQ-25" target="SwwvMo_9Z4TMD4uhNruQ-1">
          <mxGeometry width="50" height="50" relative="1" as="geometry">
            <mxPoint x="360" y="270" as="sourcePoint" />
            <mxPoint x="410" y="220" as="targetPoint" />
          </mxGeometry>
        </mxCell>
        <mxCell id="SwwvMo_9Z4TMD4uhNruQ-28" value="" style="endArrow=none;html=1;rounded=0;entryX=0.5;entryY=1;entryDx=0;entryDy=0;" edge="1" parent="1" target="SwwvMo_9Z4TMD4uhNruQ-25">
          <mxGeometry width="50" height="50" relative="1" as="geometry">
            <mxPoint x="120" y="330" as="sourcePoint" />
            <mxPoint x="410" y="220" as="targetPoint" />
          </mxGeometry>
        </mxCell>
        <mxCell id="SwwvMo_9Z4TMD4uhNruQ-29" value="Podaci o plaćanju" style="text;html=1;align=center;verticalAlign=middle;resizable=0;points=[];autosize=1;strokeColor=none;fillColor=none;" vertex="1" parent="1">
          <mxGeometry x="-10" y="245" width="120" height="30" as="geometry" />
        </mxCell>
        <mxCell id="SwwvMo_9Z4TMD4uhNruQ-30" value="PLAĆANJE" style="shape=module;align=left;spacingLeft=20;align=center;verticalAlign=top;whiteSpace=wrap;html=1;" vertex="1" parent="1">
          <mxGeometry x="20" y="330" width="300" height="180" as="geometry" />
        </mxCell>
        <mxCell id="SwwvMo_9Z4TMD4uhNruQ-33" value="&amp;lt;&amp;lt;component&amp;gt;&amp;gt;&lt;div&gt;Plaćanje&lt;/div&gt;" style="rounded=0;whiteSpace=wrap;html=1;" vertex="1" parent="1">
          <mxGeometry x="80" y="420" width="95" height="27.5" as="geometry" />
        </mxCell>
        <mxCell id="SwwvMo_9Z4TMD4uhNruQ-34" value="&lt;font style=&quot;font-size: 9px;&quot;&gt;&amp;lt;&amp;lt;component&amp;gt;&amp;gt;&lt;/font&gt;&lt;div&gt;&lt;font size=&quot;1&quot;&gt;Unos plaćanja&lt;/font&gt;&lt;/div&gt;" style="rounded=0;whiteSpace=wrap;html=1;" vertex="1" parent="1">
          <mxGeometry y="370" width="95" height="27.5" as="geometry" />
        </mxCell>
        <mxCell id="SwwvMo_9Z4TMD4uhNruQ-35" value="&lt;font style=&quot;font-size: 9px;&quot;&gt;&amp;lt;&amp;lt;component&amp;gt;&amp;gt;&lt;/font&gt;&lt;div&gt;&lt;font size=&quot;1&quot;&gt;Pregled računa&lt;/font&gt;&lt;/div&gt;" style="rounded=0;whiteSpace=wrap;html=1;" vertex="1" parent="1">
          <mxGeometry x="-10" y="470" width="95" height="27.5" as="geometry" />
        </mxCell>
        <mxCell id="SwwvMo_9Z4TMD4uhNruQ-37" value="&lt;font style=&quot;font-size: 9px;&quot;&gt;&amp;lt;&amp;lt;component&amp;gt;&amp;gt;&lt;/font&gt;&lt;div&gt;&lt;font size=&quot;1&quot;&gt;Izvršenje plaćanja&lt;/font&gt;&lt;/div&gt;" style="rounded=0;whiteSpace=wrap;html=1;" vertex="1" parent="1">
          <mxGeometry x="155" y="470" width="95" height="27.5" as="geometry" />
        </mxCell>
        <mxCell id="SwwvMo_9Z4TMD4uhNruQ-39" value="" style="endArrow=classic;html=1;rounded=0;exitX=0.75;exitY=1;exitDx=0;exitDy=0;entryX=0.5;entryY=0;entryDx=0;entryDy=0;" edge="1" parent="1" source="SwwvMo_9Z4TMD4uhNruQ-34" target="SwwvMo_9Z4TMD4uhNruQ-33">
          <mxGeometry width="50" height="50" relative="1" as="geometry">
            <mxPoint x="300" y="300" as="sourcePoint" />
            <mxPoint x="350" y="250" as="targetPoint" />
          </mxGeometry>
        </mxCell>
        <mxCell id="SwwvMo_9Z4TMD4uhNruQ-40" value="" style="endArrow=classic;html=1;rounded=0;exitX=0.674;exitY=-0.018;exitDx=0;exitDy=0;exitPerimeter=0;" edge="1" parent="1" source="SwwvMo_9Z4TMD4uhNruQ-35">
          <mxGeometry width="50" height="50" relative="1" as="geometry">
            <mxPoint x="300" y="300" as="sourcePoint" />
            <mxPoint x="100" y="450" as="targetPoint" />
          </mxGeometry>
        </mxCell>
        <mxCell id="SwwvMo_9Z4TMD4uhNruQ-41" value="" style="endArrow=classic;html=1;rounded=0;exitX=0.25;exitY=0;exitDx=0;exitDy=0;entryX=0.681;entryY=1.127;entryDx=0;entryDy=0;entryPerimeter=0;" edge="1" parent="1" source="SwwvMo_9Z4TMD4uhNruQ-37" target="SwwvMo_9Z4TMD4uhNruQ-33">
          <mxGeometry width="50" height="50" relative="1" as="geometry">
            <mxPoint x="300" y="320" as="sourcePoint" />
            <mxPoint x="350" y="270" as="targetPoint" />
          </mxGeometry>
        </mxCell>
        <mxCell id="SwwvMo_9Z4TMD4uhNruQ-42" value="ADMINISTRACIJA CAFFE BARA" style="shape=module;align=left;spacingLeft=20;align=center;verticalAlign=top;whiteSpace=wrap;html=1;" vertex="1" parent="1">
          <mxGeometry x="680" y="330" width="350" height="180" as="geometry" />
        </mxCell>
        <mxCell id="SwwvMo_9Z4TMD4uhNruQ-44" value="" style="ellipse;fillColor=strokeColor;html=1;" vertex="1" parent="1">
          <mxGeometry x="535" y="407.5" width="30" height="25" as="geometry" />
        </mxCell>
        <mxCell id="SwwvMo_9Z4TMD4uhNruQ-46" value="" style="endArrow=none;html=1;rounded=0;exitX=1;exitY=0.5;exitDx=0;exitDy=0;entryX=0;entryY=0.5;entryDx=0;entryDy=0;" edge="1" parent="1" source="SwwvMo_9Z4TMD4uhNruQ-30" target="SwwvMo_9Z4TMD4uhNruQ-44">
          <mxGeometry width="50" height="50" relative="1" as="geometry">
            <mxPoint x="470" y="360" as="sourcePoint" />
            <mxPoint x="520" y="310" as="targetPoint" />
          </mxGeometry>
        </mxCell>
        <mxCell id="SwwvMo_9Z4TMD4uhNruQ-49" value="" style="endArrow=none;html=1;rounded=0;exitX=0.5;exitY=0;exitDx=0;exitDy=0;entryX=0.5;entryY=1;entryDx=0;entryDy=0;" edge="1" parent="1" source="SwwvMo_9Z4TMD4uhNruQ-44" target="SwwvMo_9Z4TMD4uhNruQ-3">
          <mxGeometry width="50" height="50" relative="1" as="geometry">
            <mxPoint x="550" y="400" as="sourcePoint" />
            <mxPoint x="600" y="350" as="targetPoint" />
          </mxGeometry>
        </mxCell>
        <mxCell id="SwwvMo_9Z4TMD4uhNruQ-50" value="Pristup sustavu" style="text;html=1;align=center;verticalAlign=middle;resizable=0;points=[];autosize=1;strokeColor=none;fillColor=none;" vertex="1" parent="1">
          <mxGeometry x="440" y="370" width="110" height="30" as="geometry" />
        </mxCell>
        <mxCell id="SwwvMo_9Z4TMD4uhNruQ-52" value="" style="endArrow=none;html=1;rounded=0;exitX=1;exitY=0.5;exitDx=0;exitDy=0;" edge="1" parent="1" source="SwwvMo_9Z4TMD4uhNruQ-44">
          <mxGeometry width="50" height="50" relative="1" as="geometry">
            <mxPoint x="565" y="420" as="sourcePoint" />
            <mxPoint x="690" y="421" as="targetPoint" />
          </mxGeometry>
        </mxCell>
        <mxCell id="SwwvMo_9Z4TMD4uhNruQ-51" value="&amp;lt;&amp;lt;component&amp;gt;&amp;gt;&lt;div&gt;Administrator&lt;/div&gt;" style="rounded=0;whiteSpace=wrap;html=1;" vertex="1" parent="1">
          <mxGeometry x="815" y="415" width="95" height="27.5" as="geometry" />
        </mxCell>
        <mxCell id="SwwvMo_9Z4TMD4uhNruQ-53" value="&lt;font style=&quot;font-size: 8px;&quot;&gt;&amp;lt;&amp;lt;&lt;/font&gt;&lt;font style=&quot;font-size: 8px;&quot;&gt;component&amp;gt;&amp;gt;&lt;/font&gt;&lt;div&gt;&lt;font style=&quot;font-size: 8px;&quot;&gt;Upravljanje stolovima&lt;/font&gt;&lt;/div&gt;" style="rounded=0;whiteSpace=wrap;html=1;" vertex="1" parent="1">
          <mxGeometry x="815" y="360" width="95" height="27.5" as="geometry" />
        </mxCell>
        <mxCell id="SwwvMo_9Z4TMD4uhNruQ-55" value="&lt;font style=&quot;font-size: 8px;&quot;&gt;&amp;lt;&amp;lt;&lt;/font&gt;&lt;font style=&quot;font-size: 8px;&quot;&gt;component&amp;gt;&amp;gt;&lt;/font&gt;&lt;div&gt;&lt;font style=&quot;font-size: 8px;&quot;&gt;Upravljanje proizvodima&lt;/font&gt;&lt;/div&gt;" style="rounded=0;whiteSpace=wrap;html=1;" vertex="1" parent="1">
          <mxGeometry x="700" y="387.5" width="95" height="27.5" as="geometry" />
        </mxCell>
        <mxCell id="SwwvMo_9Z4TMD4uhNruQ-57" value="&lt;font style=&quot;font-size: 9px;&quot;&gt;&amp;lt;&amp;lt;component&amp;gt;&amp;gt;&lt;/font&gt;&lt;div&gt;&lt;font size=&quot;1&quot;&gt;Izvještavanje&lt;/font&gt;&lt;/div&gt;" style="rounded=0;whiteSpace=wrap;html=1;" vertex="1" parent="1">
          <mxGeometry x="720" y="470" width="95" height="27.5" as="geometry" />
        </mxCell>
        <mxCell id="SwwvMo_9Z4TMD4uhNruQ-60" value="&lt;font style=&quot;font-size: 8px;&quot;&gt;&amp;lt;&amp;lt;&lt;/font&gt;&lt;font style=&quot;font-size: 8px;&quot;&gt;component&amp;gt;&amp;gt;&lt;/font&gt;&lt;div&gt;&lt;font style=&quot;font-size: 8px;&quot;&gt;Upravljanje računima&lt;/font&gt;&lt;/div&gt;" style="rounded=0;whiteSpace=wrap;html=1;" vertex="1" parent="1">
          <mxGeometry x="900" y="470" width="95" height="27.5" as="geometry" />
        </mxCell>
        <mxCell id="SwwvMo_9Z4TMD4uhNruQ-63" value="&lt;font style=&quot;font-size: 8px;&quot;&gt;&amp;lt;&amp;lt;&lt;/font&gt;&lt;font style=&quot;font-size: 8px;&quot;&gt;component&amp;gt;&amp;gt;&lt;/font&gt;&lt;div&gt;&lt;font style=&quot;font-size: 8px;&quot;&gt;Upravljanje korisnicima&lt;/font&gt;&lt;/div&gt;" style="rounded=0;whiteSpace=wrap;html=1;" vertex="1" parent="1">
          <mxGeometry x="930" y="387.5" width="95" height="27.5" as="geometry" />
        </mxCell>
        <mxCell id="SwwvMo_9Z4TMD4uhNruQ-65" value="" style="endArrow=classic;html=1;rounded=0;exitX=0.5;exitY=1;exitDx=0;exitDy=0;entryX=0.5;entryY=0;entryDx=0;entryDy=0;" edge="1" parent="1" source="SwwvMo_9Z4TMD4uhNruQ-53" target="SwwvMo_9Z4TMD4uhNruQ-51">
          <mxGeometry width="50" height="50" relative="1" as="geometry">
            <mxPoint x="780" y="460" as="sourcePoint" />
            <mxPoint x="830" y="410" as="targetPoint" />
          </mxGeometry>
        </mxCell>
        <mxCell id="SwwvMo_9Z4TMD4uhNruQ-66" value="" style="endArrow=classic;html=1;rounded=0;exitX=0.5;exitY=1;exitDx=0;exitDy=0;entryX=0.001;entryY=0.623;entryDx=0;entryDy=0;entryPerimeter=0;" edge="1" parent="1" source="SwwvMo_9Z4TMD4uhNruQ-55" target="SwwvMo_9Z4TMD4uhNruQ-51">
          <mxGeometry width="50" height="50" relative="1" as="geometry">
            <mxPoint x="780" y="460" as="sourcePoint" />
            <mxPoint x="830" y="410" as="targetPoint" />
          </mxGeometry>
        </mxCell>
        <mxCell id="SwwvMo_9Z4TMD4uhNruQ-67" value="" style="endArrow=classic;html=1;rounded=0;exitX=0.5;exitY=0;exitDx=0;exitDy=0;entryX=0.25;entryY=1;entryDx=0;entryDy=0;" edge="1" parent="1" source="SwwvMo_9Z4TMD4uhNruQ-57" target="SwwvMo_9Z4TMD4uhNruQ-51">
          <mxGeometry width="50" height="50" relative="1" as="geometry">
            <mxPoint x="780" y="460" as="sourcePoint" />
            <mxPoint x="830" y="410" as="targetPoint" />
          </mxGeometry>
        </mxCell>
        <mxCell id="SwwvMo_9Z4TMD4uhNruQ-68" value="" style="endArrow=classic;html=1;rounded=0;exitX=0.5;exitY=0;exitDx=0;exitDy=0;" edge="1" parent="1" source="SwwvMo_9Z4TMD4uhNruQ-60">
          <mxGeometry width="50" height="50" relative="1" as="geometry">
            <mxPoint x="973.75" y="502.5" as="sourcePoint" />
            <mxPoint x="880" y="442.5" as="targetPoint" />
          </mxGeometry>
        </mxCell>
        <mxCell id="SwwvMo_9Z4TMD4uhNruQ-69" value="" style="endArrow=classic;html=1;rounded=0;exitX=0.5;exitY=1;exitDx=0;exitDy=0;entryX=1;entryY=0.5;entryDx=0;entryDy=0;" edge="1" parent="1" source="SwwvMo_9Z4TMD4uhNruQ-63" target="SwwvMo_9Z4TMD4uhNruQ-51">
          <mxGeometry width="50" height="50" relative="1" as="geometry">
            <mxPoint x="780" y="460" as="sourcePoint" />
            <mxPoint x="830" y="410" as="targetPoint" />
          </mxGeometry>
        </mxCell>
      </root>
    </mxGraphModel>
  </diagram>
</mxfile>
